<svg width="28" height="23" viewBox="0 0 28 23" fill="none" xmlns="http://www.w3.org/2000/svg">
<path d="M3.33317 22.1666C2.59984 22.1666 1.97184 21.9053 1.44917 21.3826C0.926506 20.8599 0.665617 20.2324 0.666506 19.4999V3.49992C0.666506 2.76659 0.92784 2.13859 1.45051 1.61592C1.97317 1.09325 2.60073 0.832365 3.33317 0.833254H24.6665C25.3998 0.833254 26.0278 1.09459 26.5505 1.61725C27.0732 2.13992 27.3341 2.76748 27.3332 3.49992V19.4999C27.3332 20.2333 27.0718 20.8613 26.5492 21.3839C26.0265 21.9066 25.399 22.1675 24.6665 22.1666H3.33317ZM13.9998 12.8333L3.33317 6.16659V19.4999H24.6665V6.16659L13.9998 12.8333ZM13.9998 10.1666L24.6665 3.49992H3.33317L13.9998 10.1666ZM3.33317 6.16659V3.49992V19.4999V6.16659Z" fill="#F8F5F4"/>
</svg>
