<svg width="20" height="28" viewBox="0 0 20 28" fill="none" xmlns="http://www.w3.org/2000/svg">
<path d="M9.99984 6.66675C10.8839 6.66675 11.7317 7.01794 12.3569 7.64306C12.982 8.26818 13.3332 9.11603 13.3332 10.0001C13.3332 10.4378 13.247 10.8713 13.0794 11.2757C12.9119 11.6801 12.6664 12.0476 12.3569 12.3571C12.0473 12.6666 11.6799 12.9122 11.2754 13.0797C10.871 13.2472 10.4376 13.3334 9.99984 13.3334C9.11578 13.3334 8.26794 12.9822 7.64281 12.3571C7.01769 11.732 6.6665 10.8841 6.6665 10.0001C6.6665 9.11603 7.01769 8.26818 7.64281 7.64306C8.26794 7.01794 9.11578 6.66675 9.99984 6.66675ZM9.99984 0.666748C12.4752 0.666748 14.8492 1.65008 16.5995 3.40042C18.3498 5.15076 19.3332 7.52473 19.3332 10.0001C19.3332 17.0001 9.99984 27.3334 9.99984 27.3334C9.99984 27.3334 0.666504 17.0001 0.666504 10.0001C0.666504 7.52473 1.64983 5.15076 3.40017 3.40042C5.15051 1.65008 7.52448 0.666748 9.99984 0.666748ZM9.99984 3.33341C8.23173 3.33341 6.53603 4.03579 5.28579 5.28604C4.03555 6.53628 3.33317 8.23197 3.33317 10.0001C3.33317 11.3334 3.33317 14.0001 9.99984 22.9467C16.6665 14.0001 16.6665 11.3334 16.6665 10.0001C16.6665 8.23197 15.9641 6.53628 14.7139 5.28604C13.4636 4.03579 11.7679 3.33341 9.99984 3.33341Z" fill="#F8F5F4"/>
</svg>
